<?xml version="1.0" encoding="UTF-8" standalone="no"?>
<!-- Created with Inkscape (http://www.inkscape.org/) -->

<svg
   version="1.1"
   id="svg1"
   width="363.86664"
   height="480.7067"
   viewBox="0 0 363.86664 480.7067"
   xmlns="http://www.w3.org/2000/svg"
   xmlns:svg="http://www.w3.org/2000/svg">
  <defs
     id="defs1" />
  <g
     id="g1"
     transform="translate(-209.43995,-95.306678)">
    <path
       id="path112"
       d="m 211.67999,158.10668 39.46667,72.41333 1.02667,2.33334 0.90666,2.34666 0.8,2.37334 0.69334,2.41333 0.61333,2.44 0.52,2.45333 0.42667,2.50667 0.34666,2.50667 0.26667,2.56 0.2,2.54666 0.12,2.57333 0.0667,2.58667 -0.04,5.22667 -0.26667,5.25333 -0.42667,5.26667 -0.57333,5.28 -0.68,5.25333 -0.74667,5.22667 -0.8,5.17333 -0.8,5.09333 -0.78666,5 -0.73334,4.90667 -0.70666,4.77333 -0.56,4.77334 -0.41334,4.8 -0.25333,4.84 -0.08,4.86666 0.0933,4.86667 0.26667,4.88 0.46667,4.86667 0.66666,4.86666 0.86667,4.82667 1.06667,4.81333 1.29333,4.77334 1.52,4.73333 0.85333,2.33333 0.89334,2.33334 0.97333,2.30666 1.02667,2.30667 1.08,2.28 1.16,2.26666 1.72,2.97334 1.76,2.88 1.77333,2.77333 1.78667,2.64 1.8,2.53333 1.82666,2.44 1.82667,2.34667 1.85333,2.24 1.88,2.16 1.89334,2.06667 1.92,2.01333 1.93333,1.93333 1.97333,1.88 1.98667,1.81334 4.08,3.48 4.18667,3.30666 4.30666,3.2 4.44,3.12 4.57334,3.08 4.73333,3.10667 4.88,3.14667 5.05333,3.26666 5.21334,3.4 3.56,2.22667 3.65333,2.12 3.74666,2.05333 3.82667,1.97334 7.72,3.81333 3.85333,1.85333 3.8,1.84 3.74667,1.84 3.62667,1.85334 3.49333,1.86666 3.34667,1.92 3.16,1.96 1.52,1.01334 1.44,1.04 1.38666,1.04 1.32,1.08 1.25334,1.08 1.18666,1.13333 2.6,2.42667 2.42667,2.44 2.25333,2.41333 2.10667,2.4 1.96,2.41333 1.85333,2.42667 1.76,2.48 1.69334,2.54667 1.65333,2.6 1.64,2.70666 1.64,2.8 1.66667,2.93334 1.73333,3.06666 1.78667,3.22667 1.89333,3.38666 2.04,3.57334 27.52,49.06666 -2.24,1.25334 -27.52,-49.05334 -2.02667,-3.6 -1.90666,-3.38666 -1.78667,-3.21333 -1.70667,-3.05334 -1.65333,-2.89333 -1.64,-2.78667 -1.6,-2.65333 -1.62667,-2.56 -1.65333,-2.46667 -1.70667,-2.42666 -1.81333,-2.36 -1.89333,-2.34667 -2.04,-2.34667 -2.18667,-2.34666 -2.37333,-2.36 -2.62667,-2.45334 -1.09333,-1.05333 -1.18667,-1.02667 -1.25333,-1.02666 -1.32,-1 -1.38667,-0.98667 -1.44,-0.96 -3.09333,-1.92 -3.26667,-1.88 -3.45333,-1.85333 -3.6,-1.82667 -3.72,-1.84 -3.8,-1.84 -3.86667,-1.86667 -7.77333,-3.82666 -3.88,-2.01334 -3.81334,-2.08 -3.71999,-2.16 -3.58667,-2.25333 -5.22667,-3.4 -5.04,-3.25333 -4.90666,-3.17334 -4.74667,-3.12 -4.62667,-3.10666 -4.49333,-3.16 -4.36,-3.24 -4.25333,-3.37334 -4.14667,-3.54666 -2.02667,-1.84 -2.01333,-1.92 -1.98667,-1.97334 -1.96,-2.05333 -1.93333,-2.12 -1.90667,-2.21333 -1.90666,-2.29334 -1.86667,-2.38666 -1.85333,-2.49334 -1.84,-2.58666 -1.82667,-2.69334 -1.8,-2.81333 -1.78667,-2.93333 -1.78666,-3.09334 -1.18667,-2.32 -1.12,-2.34666 -1.05333,-2.36 -0.98667,-2.37333 -0.92,-2.38667 -0.88,-2.41333 -1.54667,-4.85334 -1.33333,-4.88 -1.09333,-4.92 -0.86667,-4.94666 -0.68,-4.96 -0.48,-4.97334 -0.26667,-4.97333 -0.0933,-4.94667 0.08,-4.96 0.26667,-4.92 0.41333,-4.89333 0.57333,-4.85333 0.72,-4.76 0.72,-4.92 0.78667,-5.01334 0.81333,-5.09333 0.78667,-5.14667 0.74667,-5.17333 0.68,-5.21333 0.56,-5.2 0.41333,-5.18667 0.26667,-5.16 0.0533,-5.12 -0.08,-2.53333 -0.10667,-2.50667 -0.2,-2.49333 -0.25333,-2.46667 -0.33333,-2.42666 -0.41334,-2.4 -0.50666,-2.37334 -0.57334,-2.34666 -0.66666,-2.30667 -0.77334,-2.26667 -0.85333,-2.24 -0.93333,-2.13333 -39.45334,-72.41333 z"
       style="fill:#ff0000;fill-opacity:1;fill-rule:nonzero;stroke:none;stroke-width:1.33333" />
    <path
       id="path113"
       d="m 561.45332,512.00001 -13.02667,-22.62667 -1.42666,-2.74667 -1.30667,-2.77333 -1.21333,-2.82667 -1.10667,-2.86666 -1.04,-2.89334 -0.94667,-2.94666 -0.88,-2.97334 -0.82666,-2.98666 -1.45334,-6.08 -1.28,-6.18667 -1.14666,-6.28 -1.06667,-6.32 -0.66667,-4.52 -0.61333,-4.50667 -1.08,-8.98666 -0.93333,-9 -0.86667,-8.98667 -0.86667,-8.97333 -0.93333,-8.97334 -1.08,-8.95999 -0.6,-4.46667 -0.66667,-4.46667 -1.05333,-9.10666 -1.22667,-9 -1.38666,-9 -1.50667,-8.97334 -1.58667,-8.97333 -1.61333,-8.96 -1.62667,-8.96 -1.61333,-8.94667 -0.54667,-2.29333 -0.6,-2.26667 -0.64,-2.21333 -0.70666,-2.14667 -1.52,-4.14666 -1.69334,-3.93334 -1.84,-3.74666 -2,-3.58667 -2.16,-3.45333 -2.30666,-3.33334 -2.45334,-3.26666 -2.6,-3.17334 -2.72,-3.13333 -2.86666,-3.12 -2.97334,-3.09333 -3.10666,-3.10667 -3.21334,-3.17333 -3.32,-3.2 -1.86666,-1.77333 -1.86667,-1.72 -1.86667,-1.64 -1.86666,-1.57334 -1.88,-1.52 -1.89333,-1.45333 -3.81334,-2.74667 -3.85333,-2.53333 -3.88,-2.32 -3.96,-2.14667 -4.01333,-2 -4.06667,-1.82666 -4.17333,-1.70667 -4.22667,-1.6 -4.33333,-1.49333 -4.4,-1.41334 -4.52,-1.36 -4.64,-1.29333 -4.73334,-1.28 -3.46666,-1.36 -3.28,-1.54667 -3.13334,-1.74666 -3,-1.92 -2.86666,-2.08 -2.73334,-2.22667 -2.62666,-2.33333 -2.52,-2.46667 -2.4,-2.56 -2.32,-2.62667 -2.21334,-2.72 -2.14666,-2.76 -2.06667,-2.8 -2,-2.81333 -3.8,-5.64 -3.04,-5.18667 -2.86667,-4.97333 -2.78666,-4.82667 -2.73334,-4.74666 -2.64,-4.64 -2.61333,-4.57334 -5.14667,-9.08 -5.13333,-9.05333 -2.6,-4.58666 -2.66667,-4.64 -2.70666,-4.73334 -2.78667,-4.82666 c -1.51537,-2.63458 -3.0478,-5.259121 -4.58666,-7.880004 l 2.21333,-1.293334 1.70667,2.92 2.87999,4.973338 2.8,4.84 2.70667,4.73333 2.66667,4.64 2.6,4.58666 5.13333,9.05334 5.14667,9.06666 2.6,4.58667 2.65333,4.64 2.72,4.73333 2.78667,4.82667 2.86666,4.97333 2.94667,5.04 3.77333,5.58667 1.97334,2.77333 2.02666,2.76 2.09334,2.70667 2.16,2.64 2.26666,2.56 2.33334,2.49333 2.42666,2.38667 2.53334,2.26667 2.62666,2.13333 2.74667,2 2.86667,1.84 2.98666,1.65333 3.10667,1.49334 3.2,1.26666 4.77333,1.28 4.66667,1.32 4.56,1.36 4.46667,1.42667 4.4,1.52 4.30666,1.62667 4.22667,1.74666 4.17333,1.88 4.09334,2.02667 4.04,2.2 3.98666,2.38667 3.93334,2.58666 3.87999,2.8 1.93334,1.48 1.92,1.56 1.93333,1.61334 1.89333,1.68 1.89334,1.73333 1.89333,1.8 3.33333,3.22667 3.22667,3.17333 3.13333,3.14667 3.02667,3.14666 2.90667,3.16 2.77333,3.18667 2.65333,3.26666 2.52,3.33334 2.37334,3.44 2.21333,3.57333 2.08,3.69333 1.89333,3.88 1.73334,4.05334 1.56,4.24 0.72,2.21333 0.65333,2.26667 0.62667,2.33333 0.57333,2.44 1.6,8.94667 1.64,8.96 1.61333,8.97333 1.6,8.98667 1.49334,9.01333 1.4,9.04 1.24,9.05333 1.04,9.01334 0.66666,4.50666 0.61334,4.52 1.08,9 0.93333,8.97333 0.86667,8.98667 0.86666,8.96 0.92,8.96 1.08,8.96 0.61334,4.46667 0.66666,4.46666 1.05334,6.29334 1.13333,6.21333 1.26667,6.10667 1.44,6 0.8,2.94666 0.85333,2.90667 0.93333,2.88 1,2.82667 1.09334,2.77333 1.17333,2.74667 1.26667,2.69333 1.36,2.64 13.02666,22.62667 z"
       style="fill:#ffc000;fill-opacity:1;fill-rule:nonzero;stroke:none;stroke-width:1.33333" />
    <path
       id="path114"
       d="m 245.19999,484.18667 23.8,-22.4 1.61334,-1.36 1.77333,-1.32 1.92,-1.25333 2.05333,-1.17333 2.14667,-1.10667 2.26667,-1.01333 2.36,-0.94667 2.45333,-0.88 2.54667,-0.78667 2.6,-0.70666 2.68,-0.62667 2.72,-0.53333 2.76,-0.45334 2.81333,-0.36 2.82667,-0.25333 2.85333,-0.16 3.06667,-0.13333 3,-0.0933 5.82666,-0.0533 5.61334,0.0667 5.45333,0.18666 5.30666,0.28 5.21334,0.32 5.13333,0.37334 5.10667,0.4 5.10666,0.36 5.14667,0.34666 5.2,0.28 5.32,0.18667 5.46667,0.0933 5.64,-0.0533 2.88,-0.0667 2.96,-0.12 3.01333,-0.17333 3.09333,-0.21333 5,-0.68 5.06667,-0.84 5.09333,-1 5.09334,-1.14667 5.08,-1.30667 5.05333,-1.45333 4.97333,-1.61333 4.92,-1.74667 4.82667,-1.89333 4.70667,-2.04 4.58666,-2.2 4.42667,-2.32 4.28,-2.46667 4.08,-2.6 3.88,-2.73333 3.66666,-2.86667 3.44,-2.98667 3.22667,-3.12 3.05333,-3.24 2.88,-3.37333 2.72,-3.52 2.58667,-3.65333 2.46667,-3.8 2.33333,-3.96 2.25333,-4.12 2.17334,-4.28 2.09333,-4.44 2.05333,-4.61333 2,-4.8 2,-4.97334 1.97334,-5.16 1.97333,-5.34666 1.58667,-4.53334 1.44,-4.52 1.29333,-4.52 1.16,-4.50666 1.04,-4.52 0.94667,-4.52 0.82666,-4.52 0.76,-4.52 0.69334,-4.52 0.6,-4.53334 1.08,-9.06666 0.94666,-9.08 0.89334,-9.10667 0.22666,-2.16 0.24,-2.21333 0.52,-4.58667 0.6,-4.76 0.69334,-4.89333 0.8,-4.97334 0.90666,-5.04 1.05334,-5.06666 1.2,-5.02667 1.36,-5 1.53333,-4.88 1.76,-4.77333 1.94667,-4.58667 1.08,-2.24 1.12,-2.17333 1.18666,-2.10667 1.25334,-2.05333 1.32,-1.97333 1.38666,-1.89334 1.46667,-1.81333 1.52,-1.73333 26.30667,-22.57334 1.66666,1.94667 -26.04,22.32 -1.46666,1.65333 -1.38667,1.72 -1.33333,1.8 -1.25334,1.89334 -1.21333,1.94666 -1.13333,2.04 -1.09334,2.10667 -1.02666,2.13333 -1.90667,4.46667 -1.70667,4.65333 -1.52,4.8 -1.34666,4.90667 -1.17334,4.96 -1.04,5 -0.90666,4.98666 -0.78667,4.93334 -0.68,4.85333 -0.6,4.72 -0.52,4.57333 -0.24,2.21334 -0.22667,2.14666 -0.89333,9.12 -0.94667,9.12 -1.09333,9.10667 -0.61333,4.57333 -0.69334,4.56 -0.76,4.56 -0.84,4.57334 -0.96,4.57333 -1.05333,4.57333 -1.18667,4.57334 -1.30666,4.6 -1.46667,4.58666 -1.6,4.58667 -1.98667,5.37333 -1.98666,5.18667 -2.01334,5.01333 -2.02666,4.84 -2.06667,4.66667 -2.13333,4.52 -2.21334,4.36 -2.28,4.18666 -2.4,4.04 -2.52,3.89334 -2.65333,3.74666 -2.8,3.6 -2.96,3.46667 -3.14667,3.33333 -3.33333,3.21334 -3.53333,3.06666 -3.76,2.94667 -3.98667,2.8 -4.17333,2.65333 -4.36,2.52 -4.53333,2.37334 -4.65334,2.22666 -4.8,2.08 -4.90666,1.92 -4.98667,1.77334 -5.05333,1.62666 -5.12,1.48 -5.16,1.32 -5.16,1.17334 -5.16,1 -5.16,0.85333 -5.16,0.70667 -3.12,0.21333 -3.05334,0.16 -3,0.12 -2.93333,0.08 -5.70667,0.04 -5.50666,-0.08 -5.36,-0.2 -5.24,-0.28 -5.16,-0.33333 -5.12,-0.37334 -5.09334,-0.38666 -5.12,-0.37334 -5.17333,-0.33333 -5.26666,-0.26667 -5.38667,-0.18666 -5.56,-0.0667 -5.77333,0.0533 -2.97334,0.0933 -3.02666,0.13333 -2.77334,0.14667 -2.73333,0.25333 -2.72,0.34667 -2.68,0.42666 -2.64,0.52 -2.57333,0.6 -2.52,0.68 -2.44,0.76 -2.37334,0.84 -2.25333,0.89334 -2.16,0.98666 -2.04,1.04 -1.93333,1.09334 -1.78667,1.16 -1.64,1.21333 -1.50667,1.28 -23.8,22.4 z"
       style="fill:#00b050;fill-opacity:1;fill-rule:nonzero;stroke:none;stroke-width:1.33333" />
    <path
       id="path115"
       d="m 555.05332,160.02668 -39.25333,32.62667 -2.16,1.49333 -2.09334,1.36 -2.04,1.29333 -2.05333,1.22667 -2.01333,1.16 -2.01334,1.09333 -1.98666,1.04 -1.98667,0.97334 -3.92,1.77333 -3.88,1.56 -3.85333,1.36 -3.84,1.16 -3.81334,0.98667 -3.81333,0.82666 -3.81333,0.68 -3.81334,0.54667 -3.82666,0.44 -3.88,0.32 -3.89333,0.22667 -3.93334,0.17333 -2.85333,-0.13333 -2.81333,-0.18667 -5.68,-0.53333 -5.81334,-0.69334 -5.92,-0.8 -5.98666,-0.88 -6.02667,-0.92 -6.08,-0.88 -6.08,-0.84 -6.08,-0.73333 -6.04,-0.61333 -6,-0.4 -2.96,-0.13334 -2.94667,-0.0667 -2.92,0.0133 -2.90666,0.08 -2.88,0.14667 -2.82667,0.25333 -2.81333,0.32 -2.77334,0.41333 -2.72,0.53334 -2.69333,0.61333 -4.50667,1.09333 -4.49333,1.22667 -4.49333,1.36 -4.46667,1.49333 -4.42667,1.61334 -4.37333,1.74666 -4.32,1.88 -4.22666,2.01334 -4.14667,2.13333 -4.02667,2.26667 -3.90666,2.38666 -3.77334,2.52 -3.6,2.62667 -3.46666,2.77333 -3.25334,2.89334 -3.08,3.01333 -3.24,3.52 -3.09333,3.58667 -2.93333,3.64 -2.74667,3.69333 -2.6,3.76 -2.45333,3.84 -2.28,3.93333 -2.13334,4.01333 -1.98666,4.12 -1.85334,4.25334 -1.70666,4.34666 -1.57334,4.49334 -1.45333,4.64 -1.30667,4.8 -1.2,4.94666 -1.06666,5.12 -0.49334,2.73334 -0.42666,2.70666 -0.36,2.68 -0.29334,2.64 -0.22666,2.64 -0.16,2.6 -0.17334,5.16 0.0533,5.06667 0.26666,5.01333 0.44,4.97334 0.6,4.93333 0.74667,4.93333 0.88,4.92 0.98667,4.93334 1.09333,4.96 1.16,4.98666 1.21333,5.05334 1.26667,5.10666 1.28,5.18667 0.96,3.66666 0.82667,3.84 0.64,3.90667 0.45333,3.94667 0.26667,3.97333 0.04,3.97333 -0.18667,3.94667 -0.18667,1.98667 -0.25333,1.94666 -0.30667,1.92 -0.37333,1.89334 -0.45333,1.88 -0.52,1.85333 -0.58667,1.81333 -0.66667,1.78667 -0.74666,1.74667 -0.81334,1.70666 -0.89333,1.66667 -0.98667,1.6 -1.06666,1.57333 -1.14667,1.50667 -1.24,1.44 -1.32,1.38667 -1.42667,1.32 -1.50666,1.24 -23.4,18.66666 -1.58667,-2.01333 23.36,-18.61333 1.38667,-1.16 1.32,-1.21334 1.24,-1.28 1.14666,-1.33333 1.06667,-1.4 0.98667,-1.45333 0.92,-1.49334 0.84,-1.54666 0.77333,-1.6 0.69333,-1.64 0.62667,-1.68 0.56,-1.72 0.49333,-1.76 0.44,-1.78667 0.36,-1.8 0.29334,-1.84 0.22666,-1.85333 0.18667,-1.85334 0.18667,-3.81333 -0.04,-3.82667 -0.24,-3.85333 -0.44,-3.82667 -0.62667,-3.78666 -0.8,-3.73334 -0.96,-3.69333 -1.29333,-5.18666 -1.25334,-5.12 -1.22666,-5.06667 -1.17334,-5.02667 -1.09333,-5 -1,-4.98666 -0.89333,-4.98667 -0.76,-5 -0.61334,-5.02667 -0.44,-5.06666 -0.25333,-5.10667 -0.0667,-5.18667 0.17334,-5.24 0.17333,-2.66666 0.22667,-2.68 0.29333,-2.72 0.37333,-2.73334 0.44,-2.76 0.50667,-2.8 1.09333,-5.2 1.2,-5.02666 1.34667,-4.88 1.48,-4.72 1.6,-4.58667 1.74667,-4.44 1.89333,-4.33333 2.02667,-4.21334 2.18666,-4.10666 2.34667,-4.01334 2.49333,-3.92 2.65334,-3.83999 2.81333,-3.77334 2.98667,-3.69333 3.14666,-3.65333 3.33334,-3.61334 3.17333,-3.10666 3.36,-2.97334 3.53333,-2.82666 3.69334,-2.70667 3.85333,-2.57333 4,-2.44 4.10667,-2.30667 4.21333,-2.17333 4.30667,-2.04 4.38666,-1.90667 4.45333,-1.77333 4.50667,-1.65334 4.53333,-1.50666 4.54667,-1.37334 4.57333,-1.24 4.53334,-1.10666 2.78666,-0.64 2.81334,-0.53334 2.86666,-0.42666 2.88,-0.33334 2.92,-0.25333 2.94667,-0.16 2.96,-0.08 h 2.98667 l 3.01333,0.0533 3.01333,0.13334 6.08,0.41333 6.10667,0.61333 6.12,0.74667 6.09333,0.84 6.09334,0.89333 6.01333,0.90667 5.96,0.88 5.86667,0.78667 5.74666,0.69333 5.64,0.52 2.74667,0.2 2.62667,0.12 3.89333,-0.16 3.84,-0.22667 3.78667,-0.32 3.74666,-0.42666 3.74667,-0.53334 3.70666,-0.66666 3.72,-0.78667 3.72,-0.97333 3.72,-1.12 3.76,-1.32 3.77334,-1.52 3.84,-1.73334 1.94666,-0.96 1.94667,-1 1.94667,-1.06666 1.98666,-1.14667 1.98667,-1.18667 2.01333,-1.26666 2.04,-1.33334 1.97334,-1.36 39.26666,-32.62666 z"
       style="fill:#7030a0;fill-opacity:1;fill-rule:nonzero;stroke:none;stroke-width:1.33333" />
    <path
       id="path116"
       d="m 553.95999,496.32001 c -25.66667,-85.4 -18.78667,-167.64 -10.08,-258.22666 0.98666,-14 4.04,-23.48 12.6,-35.21334"
       style="fill:none;stroke:#ffc000;stroke-width:2.56;stroke-linecap:butt;stroke-linejoin:round;stroke-miterlimit:10;stroke-dasharray:none;stroke-opacity:1" />
    <path
       id="path117"
       d="m 553.59999,495.68001 c -15.86667,-21.42667 -27.52,-56.17334 -34.85334,-80.30667 -6.50666,-24.77333 -13.05333,-40.29333 -16.8,-67.09333 -2.96,-24.54667 -8.24,-45.25333 -22.04,-69.34667 -13.05333,-23.05333 -31.17333,-37.51999 -55.97333,-46.35999 -31.74666,-9.17334 -48.73333,-13.84 -77.93333,-2.70667 -34.33333,14.90667 -58.2,36.82666 -66.70666,70.46666 -7.13334,32 -4.88,52.48 0.66666,84.69334 3.89334,19.38666 -5.64,43.71999 -23,59.41333"
       style="fill:none;stroke:#ffc000;stroke-width:2.56;stroke-linecap:butt;stroke-linejoin:round;stroke-miterlimit:10;stroke-dasharray:none;stroke-opacity:1" />
    <path
       id="path118"
       d="m 265.91999,466.42667 c 14.30667,-8.49333 28.37334,-11.8 43.61334,-9.92 24.59999,3.61334 44.59999,11.04 67.13333,26.36 14.46666,11.70667 27.08,30.85334 40.61333,48.65333"
       style="fill:none;stroke:#00b050;stroke-width:2.56;stroke-linecap:butt;stroke-linejoin:round;stroke-miterlimit:10;stroke-dasharray:none;stroke-opacity:1" />
    <path
       id="path119"
       d="m 529.91999,178.92001 c -23.41334,14.50667 -38.77334,20 -58.28,22.77334 -20.65333,2.64 -44.76,2.33333 -62.88,-5.18667 -20.42667,-9.32 -34.86667,-32.4 -56.44,-61.78667"
       style="fill:none;stroke:#7030a0;stroke-width:2.56;stroke-linecap:butt;stroke-linejoin:round;stroke-miterlimit:10;stroke-dasharray:none;stroke-opacity:1" />
    <path
       id="path120"
       d="m 242.10666,216.64001 c 14.04,32.84 -10.18667,98.4 -6.52,128.30667 2.48,23.45333 7.96,37.64 17.36,57.70666 6.52,14.05333 11.90667,25.16 3.68,42.14667"
       style="fill:none;stroke:#ff0000;stroke-width:2.56;stroke-linecap:butt;stroke-linejoin:round;stroke-miterlimit:10;stroke-dasharray:none;stroke-opacity:1" />
    <path
       id="path121"
       d="m 553.27999,495.56001 c -27.09334,-23 -53.72,-20.29334 -83.34667,-6.98667 C 448.79999,497.44001 421.50666,528.8 426.51999,548.8"
       style="fill:none;stroke:#ffc000;stroke-width:2.56;stroke-linecap:butt;stroke-linejoin:round;stroke-miterlimit:10;stroke-dasharray:none;stroke-opacity:1" />
    <path
       id="path122"
       d="m 222.39999,180.06668 c 17.53334,15.09333 52.61334,10.58667 80.77334,-3.82667 20.77333,-11.94666 42.69333,-36.06666 38.77333,-60.39999"
       style="fill:none;stroke:#ff0000;stroke-width:2.56;stroke-linecap:butt;stroke-linejoin:round;stroke-miterlimit:10;stroke-dasharray:none;stroke-opacity:1" />
    <path
       id="path123"
       d="m 241.91999,216.76001 11.98667,20.16 c 6.25333,7.62667 8.50667,32.41333 8.92,44.25333 0.81333,20.25334 -0.50667,40.52 2.45333,60.78667 4,27.58667 10.77334,44.04 27.68,65.61333 18.24,21.76 42.32,31.8 67.64,35.50667 27.46667,3.92 53.08,-0.6 80.54667,-10.82667 23.8,-9.90667 37.99999,-29.08 51.11999,-54.10666 16.44,-30.69334 11.29334,-56.73334 14.06667,-90.65334 1.08,-31.97333 21.8,-64.90666 49.18667,-83.97333"
       style="fill:none;stroke:#ff0000;stroke-width:2.56;stroke-linecap:butt;stroke-linejoin:round;stroke-miterlimit:10;stroke-dasharray:none;stroke-opacity:1" />
    <path
       id="path124"
       d="m 271.35999,461.76001 c 9.45334,-8.73334 18.21334,-12.49334 30.21334,-16.48 20.05333,-7.52 44.26666,-6.01334 66.41333,-4.96 31.82666,0.37333 49.12,-3.54667 74.94666,-15.57334 25.21333,-14.68 37.73333,-35.89333 48.65333,-66.14666 7.14667,-24.08 7.08,-46.65333 0.30667,-71.17333 -6.37333,-26.78667 -36.97333,-50.18667 -63.49333,-63.81333 -24.82667,-11.42667 -56.57333,-28.05334 -75.64,-88.25334"
       style="fill:none;stroke:#00b050;stroke-width:2.56;stroke-linecap:butt;stroke-linejoin:round;stroke-miterlimit:10;stroke-dasharray:none;stroke-opacity:1" />
    <path
       id="path125"
       d="m 525.11999,183.36001 c -29.37334,37.53334 -76.34667,37.45334 -123.46667,31.21334 -30.2,-2.58667 -47.49333,4.76 -71.22666,14.81333 -29.65333,13.34667 -54.4,41.49333 -60.24,75.21333 -4.78667,33.06667 3.17333,56.44 18.44,83.64 23.50667,40.38666 92.42666,76.26666 108.10666,106.72 L 415.86666,530.24"
       style="fill:none;stroke:#7030a0;stroke-width:2.56;stroke-linecap:butt;stroke-linejoin:round;stroke-miterlimit:10;stroke-dasharray:none;stroke-opacity:1" />
  </g>
</svg>
